<?xml version="1.0" standalone="no"?>
<!DOCTYPE svg PUBLIC "-//W3C//DTD SVG 20010904//EN"
 "http://www.w3.org/TR/2001/REC-SVG-20010904/DTD/svg10.dtd">
<svg version="1.0" xmlns="http://www.w3.org/2000/svg"
 width="900.000000pt" height="512.000000pt" viewBox="0 0 900.000000 512.000000"
 preserveAspectRatio="xMidYMid meet">
<metadata>
Created by potrace 1.16, written by Peter Selinger 2001-2019
</metadata>
<g transform="translate(0.000000,512.000000) scale(0.100000,-0.100000)"
fill="#000000" stroke="none">
<path d="M2660 5098 c-19 -13 -45 -39 -57 -57 -23 -34 -23 -36 -23 -401 0
-365 0 -367 23 -401 71 -106 203 -106 274 0 23 34 23 36 23 401 0 364 0 367
-22 400 -35 51 -71 73 -130 78 -44 3 -59 0 -88 -20z"/>
<path d="M5219 5097 c-18 -12 -44 -38 -56 -56 -23 -34 -23 -36 -23 -401 0
-365 0 -367 23 -401 71 -106 203 -106 274 0 23 34 23 36 23 401 0 365 0 367
-23 401 -35 52 -82 79 -137 79 -32 0 -58 -7 -81 -23z"/>
<path d="M2183 4466 c-88 -28 -175 -106 -216 -194 l-22 -47 0 -1505 0 -1505
28 -56 c32 -67 109 -142 175 -172 l47 -22 993 -3 992 -2 0 160 0 160 -948 0
c-724 0 -951 3 -960 12 -9 9 -12 272 -12 1120 l0 1108 1760 0 1760 0 0 -320 0
-320 160 0 161 0 -3 673 -3 672 -28 56 c-32 67 -109 142 -175 172 -36 16 -72
22 -158 25 l-111 4 -5 -118 c-5 -138 -21 -186 -88 -258 -63 -68 -137 -101
-230 -101 -93 0 -167 33 -230 101 -67 72 -83 120 -88 257 l-4 117 -958 0 -958
0 -4 -117 c-5 -140 -24 -193 -95 -265 -64 -65 -129 -92 -223 -92 -93 0 -155
25 -222 91 -71 70 -91 124 -96 266 l-4 117 -97 -1 c-53 0 -115 -6 -138 -13z"/>
<path d="M2580 2880 l0 -320 320 0 320 0 0 320 0 320 -320 0 -320 0 0 -320z"/>
<path d="M3540 2880 l0 -320 320 0 320 0 0 320 0 320 -320 0 -320 0 0 -320z"/>
<path d="M4500 2880 l0 -320 320 0 320 0 0 320 0 320 -320 0 -320 0 0 -320z"/>
<path d="M5561 2544 c-440 -74 -821 -390 -980 -814 -55 -147 -72 -232 -78
-405 -4 -112 -1 -175 11 -250 75 -454 385 -832 816 -994 153 -57 240 -73 420
-77 179 -4 286 11 424 57 379 126 667 401 805 769 62 165 76 247 76 450 0 203
-14 285 -76 450 -116 307 -343 558 -634 700 -110 54 -242 96 -355 115 -116 18
-315 18 -429 -1z m338 -314 c210 -27 405 -123 557 -274 375 -375 375 -977 0
-1352 -375 -375 -977 -375 -1352 0 -510 510 -294 1375 396 1590 137 43 256 53
399 36z"/>
<path d="M5539 1897 c-18 -12 -44 -38 -56 -56 -23 -34 -23 -36 -23 -401 0
-365 0 -367 23 -401 12 -18 38 -44 56 -56 34 -23 36 -23 401 -23 365 0 367 0
401 23 106 71 106 203 0 274 -33 22 -40 23 -297 23 l-264 0 0 264 c0 257 -1
264 -23 297 -35 52 -82 79 -137 79 -32 0 -58 -7 -81 -23z"/>
<path d="M2580 1920 l0 -320 320 0 320 0 0 320 0 320 -320 0 -320 0 0 -320z"/>
<path d="M3540 1920 l0 -320 320 0 320 0 0 320 0 320 -320 0 -320 0 0 -320z"/>
</g>
</svg>
